<?xml version="1.0" standalone="no"?>
<!DOCTYPE svg PUBLIC "-//W3C//DTD SVG 20010904//EN"
 "http://www.w3.org/TR/2001/REC-SVG-20010904/DTD/svg10.dtd">
<svg version="1.0" xmlns="http://www.w3.org/2000/svg"
 width="586.000000pt" height="586.000000pt" viewBox="0 0 586.000000 586.000000"
 preserveAspectRatio="xMidYMid meet">

<g transform="translate(0.000000,586.000000) scale(0.100000,-0.100000)"
fill="#000000" stroke="none">
<path d="M1640 4950 c-157 -15 -311 -77 -446 -177 -191 -143 -325 -364 -364
-604 -10 -67 -15 -2449 -4 -2449 3 0 82 67 177 148 975 839 1900 1599 2837
2328 212 165 511 398 665 518 154 120 287 224 295 232 12 12 -212 14 -1535 13
-853 -1 -1584 -5 -1625 -9z"/>
<path d="M4715 4393 c-378 -286 -909 -681 -1390 -1033 -86 -63 -239 -176 -339
-250 -99 -74 -278 -207 -396 -294 -286 -212 -472 -357 -466 -363 2 -3 337 106
743 241 774 257 1085 357 1091 351 2 -2 -14 -13 -35 -24 -33 -17 -232 -140
-363 -226 -19 -12 -197 -127 -395 -255 -414 -268 -1390 -916 -1670 -1108 -511
-351 -575 -397 -574 -411 1 -41 128 -103 245 -121 47 -7 557 -10 1629 -8 1484
3 1563 4 1625 22 308 88 530 320 591 619 18 92 19 143 17 1595 l-3 1500 -310
-235z"/>
</g>
</svg>
